<svg width="64" height="64" viewBox="0 0 64 64" xmlns="http://www.w3.org/2000/svg" role="img" aria-label="PlantOps logo">
  <defs>
    <linearGradient id="leafGrad" x1="16" y1="12" x2="48" y2="52" gradientUnits="userSpaceOnUse">
      <stop offset="0" stop-color="#e8f0f7"/>
      <stop offset="1" stop-color="#37c878"/>
    </linearGradient>
  </defs>

  <circle cx="32" cy="32" r="27" fill="#0b1118" stroke="#e8f0f7" stroke-width="4"/>

  <path d="M32 8l4.2 6.7 7.8-1.4 1.5 7.8 7.1 3.5-3.5 7.1 3.5 7.1-7.1 3.5-1.5 7.8-7.8-1.4L32 56l-4.2-6.7-7.8 1.4-1.5-7.8-7.1-3.5 3.5-7.1-3.5-7.1 7.1-3.5 1.5-7.8 7.8 1.4L32 8z"
        fill="#e8f0f7" opacity="0.95"/>

  <circle cx="32" cy="32" r="17" fill="#0b1118"/>

  <path d="M45 20c-8.6.3-18.6 5.4-22.2 18.6C32.6 38.1 43.5 33.4 45 20z"
        fill="url(#leafGrad)"/>

  <path d="M22.9 38.2c5.2-5.1 10.7-8.8 19.2-15.1"
        fill="none"
        stroke="#0b1118"
        stroke-width="2.2"
        stroke-linecap="round"/>
</svg>
