<svg xmlns="http://www.w3.org/2000/svg" viewBox="0 0 24 24" fill="none" stroke="#9fb5c9" stroke-width="2" stroke-linecap="round" stroke-linejoin="round"><circle cx="12" cy="12" r="3"/><path d="M19.4 15a1.7 1.7 0 00.3 1.9l.1.1-2 3-.2-.1a1.7 1.7 0 00-1.9-.3 1.7 1.7 0 00-1 1.5V21h-4v-.2a1.7 1.7 0 00-1-1.5 1.7 1.7 0 00-1.9.3l-.2.1-2-3 .1-.1A1.7 1.7 0 004.6 15a1.7 1.7 0 00-1.5-1H3v-4h.2a1.7 1.7 0 001.5-1 1.7 1.7 0 00-.3-1.9l-.1-.1 2-3 .2.1a1.7 1.7 0 001.9.3A1.7 1.7 0 009.4 3V3h4v.2a1.7 1.7 0 001 1.5 1.7 1.7 0 001.9-.3l.2-.1 2 3-.1.1a1.7 1.7 0 00-.3 1.9 1.7 1.7 0 001.5 1h.2v4h-.2a1.7 1.7 0 00-1.4 1z"/></svg>
